HIERARCHY
ROOT root
{
	OFFSET 0.000000 0.000000 0.000000
	CHANNELS 6 Xposition Yposition Zposition Zrotation Yrotation Xrotation
	JOINT lhip
	{
		OFFSET 0.058581 -0.082280 -0.017664
		CHANNELS 3 Zrotation Yrotation Xrotation
		JOINT lknee
		{
			OFFSET 0.043451 -0.386469 0.008037
			CHANNELS 3 Zrotation Yrotation Xrotation
			JOINT lankle
			{
				OFFSET -0.014790 -0.426874 -0.037428
				CHANNELS 3 Zrotation Yrotation Xrotation
				JOINT ltoe
				{
					OFFSET 0.041054 -0.060286 0.122042
					CHANNELS 3 Zrotation Yrotation Xrotation
					End Site
					{
						OFFSET 0.000000 0.000000 0.000000
					}
				}
			}
		}
	}
	JOINT rhip
	{
		OFFSET -0.060310 -0.090513 -0.013543
		CHANNELS 3 Zrotation Yrotation Xrotation
		JOINT rknee
		{
			OFFSET -0.043257 -0.383688 -0.004843
			CHANNELS 3 Zrotation Yrotation Xrotation
			JOINT rankle
			{
				OFFSET 0.019056 -0.420046 -0.034562
				CHANNELS 3 Zrotation Yrotation Xrotation
				JOINT rtoe
				{
					OFFSET -0.034840 -0.062106 0.130323
					CHANNELS 3 Zrotation Yrotation Xrotation
					End Site
					{
						OFFSET 0.000000 0.000000 0.000000
					}
				}
			}
		}
	}
	JOINT lowerback
	{
		OFFSET 0.004439 0.124404 -0.038385
		CHANNELS 3 Zrotation Yrotation Xrotation
		JOINT upperback
		{
			OFFSET 0.004488 0.137956 0.026820
			CHANNELS 3 Zrotation Yrotation Xrotation
			JOINT chest
			{
				OFFSET -0.002265 0.056032 0.002855
				CHANNELS 3 Zrotation Yrotation Xrotation
				JOINT lowerneck
				{
					OFFSET -0.013390 0.211636 -0.033468
					CHANNELS 3 Zrotation Yrotation Xrotation
					JOINT upperneck
					{
						OFFSET 0.010113 0.088937 0.050410
						CHANNELS 3 Zrotation Yrotation Xrotation
						End Site
						{
							OFFSET 0.000000 0.000000 0.000000
						}
					}
				}
				JOINT lclavicle
				{
					OFFSET 0.071702 0.114000 -0.018898
					CHANNELS 3 Zrotation Yrotation Xrotation
					JOINT lshoulder
					{
						OFFSET 0.122921 0.045205 -0.019046
						CHANNELS 3 Zrotation Yrotation Xrotation
						JOINT lelbow
						{
							OFFSET 0.255332 -0.015649 -0.022946
							CHANNELS 3 Zrotation Yrotation Xrotation
							JOINT lwrist
							{
								OFFSET 0.265709 0.012698 -0.007375
								CHANNELS 3 Zrotation Yrotation Xrotation
								End Site
								{
									OFFSET 0.000000 0.000000 0.000000
								}
							}
						}
					}
				}
				JOINT rclavicle
				{
					OFFSET -0.082954 0.112472 -0.023707
					CHANNELS 3 Zrotation Yrotation Xrotation
					JOINT rshoulder
					{
						OFFSET -0.113228 0.046853 -0.008472
						CHANNELS 3 Zrotation Yrotation Xrotation
						JOINT relbow
						{
							OFFSET -0.260127 -0.014369 -0.031269
							CHANNELS 3 Zrotation Yrotation Xrotation
							JOINT rwrist
							{
								OFFSET -0.269108 0.006794 -0.006027
								CHANNELS 3 Zrotation Yrotation Xrotation
								End Site
								{
									OFFSET 0.000000 0.000000 0.000000
								}
							}
						}
					}
				}
			}
		}
	}
}
MOTION
Frames: 13
Frame Time: 0.033333
0.354384 0.835496 0.235702 -89.475018 -1.161355 -41.189582 41.980528 26.209862 -47.260899 -6.493000 3.566782 33.871173 -20.264717 -12.334573 0.392737 0.000000 -0.000000 0.000000 -36.030382 -25.057399 -57.647699 -0.904677 -5.597129 31.630537 24.327459 11.996488 13.976774 0.000000 -0.000000 0.000000 1.172736 0.876748 45.102917 -2.785336 -1.427045 -0.784994 0.442124 -1.734698 -1.262163 -4.893366 6.851288 22.794712 5.405348 -1.488779 15.706582 2.818533 -26.858646 -8.286916 -11.563326 -36.674057 -15.234964 107.222006 -68.392384 -83.284921 27.350879 -29.342944 -4.551471 -3.355919 30.773740 -6.603796 24.023282 43.502246 -13.072290 -106.029560 56.558313 -92.415851 -23.293243 31.972430 -14.528914 
0.320740 0.834949 0.199525 -89.937355 -1.772010 -29.563306 42.306981 25.189150 -44.075874 -6.514373 4.627379 38.003803 -16.681904 -9.051506 -1.313334 0.000000 -0.000000 0.000000 -35.514623 -24.342579 -56.318817 0.822478 -4.018882 37.348546 21.990876 10.943772 13.799436 0.000000 -0.000000 0.000000 0.158752 0.072859 40.206418 -1.748176 -1.969692 1.055320 -0.471425 -1.871992 0.505639 -5.421221 8.760969 23.035920 4.853135 -1.075356 20.367183 1.622619 -27.165770 -2.457688 -22.560158 -35.706679 -8.743127 64.650797 -72.178897 -40.843322 30.014811 -22.841415 -5.956345 0.997927 32.794023 0.546519 33.736285 46.685679 -7.503234 -75.334587 60.689593 -62.610605 -18.694430 29.125141 -14.056187 
0.292310 0.829639 0.175131 -90.800595 -1.918480 -14.901807 41.874180 24.911183 -43.484453 -6.699697 7.268095 40.602353 -13.679622 -10.332288 -0.918739 0.000000 -0.000000 0.000000 -34.579123 -24.310653 -56.449784 1.109283 -4.831862 41.355572 21.949334 13.986929 16.661648 0.000000 -0.000000 0.000000 -1.063762 -0.168844 31.590246 -0.258593 -3.286820 7.334779 -0.334366 -0.616134 -5.149578 -7.357523 8.190563 34.000103 5.960859 3.747106 12.481828 -7.249376 -31.168100 5.523224 -32.763450 -35.263884 -2.853619 34.772810 -60.123642 -15.888207 34.638185 -15.370883 -10.589726 9.776489 36.385500 12.914711 40.272577 47.279851 -6.376360 -47.033846 51.614744 -37.775678 -22.937268 25.516113 -19.737354 
0.261112 0.826991 0.181180 -91.816733 -0.525986 -7.963894 43.326846 21.022140 -37.119439 -8.427253 7.568622 42.224410 -11.801313 -10.293016 6.732541 0.000000 -0.000000 0.000000 -37.689175 -21.837317 -48.306767 3.450431 -5.450046 46.282996 18.792155 14.125980 19.968358 0.000000 -0.000000 0.000000 -0.301554 -0.764448 27.720742 -0.554017 -3.978808 14.926385 -0.971455 -0.409521 -7.920912 -8.198668 8.022386 37.578057 7.710023 5.741878 11.382738 -17.582508 -35.097969 12.432702 -39.675392 -35.509154 -1.800600 28.737419 -43.794886 -18.094227 35.104406 -8.445241 -13.831438 19.441475 38.133472 21.672937 45.985146 45.822251 -5.127630 -36.368972 37.506079 -33.228288 -27.366170 17.570252 -22.031347 
0.221834 0.828806 0.188453 -92.404149 0.533561 -1.679671 42.451292 19.729954 -33.514943 -8.202684 3.039623 43.713492 -8.939416 -7.981215 13.463017 0.000000 -0.000000 0.000000 -37.311433 -21.712772 -44.059315 2.922932 -3.525418 51.038969 17.568963 11.812988 24.059740 0.000000 -0.000000 0.000000 0.095708 -1.475453 30.990138 -1.519730 -3.407903 13.468551 -0.618445 -0.575294 -5.245464 -10.709795 6.598950 34.251279 8.757461 7.543690 11.055366 -22.638264 -34.261116 15.157206 -46.398433 -37.060470 -2.461436 23.238720 -33.387462 -14.157230 39.506225 -2.460261 -14.740979 21.701472 37.574887 22.598274 53.743264 44.540458 -1.724369 -27.799256 27.440340 -28.530228 -33.494707 12.396291 -26.520065 
0.181680 0.830677 0.192564 -92.648674 0.586501 11.149496 41.356760 20.725062 -34.933067 -5.105216 3.881585 42.275136 -8.103415 -4.607470 16.551597 0.000000 -0.000000 0.000000 -36.069027 -22.785853 -46.696613 1.523504 -3.864289 51.367640 15.700241 10.104102 27.236973 0.000000 -0.000000 0.000000 0.408589 -1.067086 28.597723 -1.824193 -3.278989 15.510921 -0.731860 -0.768075 -6.629118 -11.623086 6.688749 34.614924 9.705043 8.310426 7.052993 -23.927275 -35.467837 17.388018 -51.410469 -34.686795 0.478311 17.234060 -24.124495 -7.970239 37.603983 0.681120 -14.462512 21.259197 38.330246 24.163422 61.709654 42.641305 3.546521 -23.321275 19.073106 -23.086516 -36.275573 7.272435 -24.947261 
0.149619 0.831283 0.195621 -92.366262 0.994101 25.237766 40.773022 19.815982 -37.406350 -5.504884 3.365046 37.123302 -10.760842 -5.898955 19.331459 0.000000 -0.000000 0.000000 -36.154794 -22.336690 -49.468132 0.582366 -4.172754 48.245000 16.680869 10.290725 32.300953 0.000000 -0.000000 0.000000 0.009980 -0.307929 29.362018 -1.971984 -3.879899 14.273434 0.162872 -0.573250 -6.697115 -11.858219 7.397099 33.178131 10.912004 7.865457 2.837377 -19.503432 -38.821051 16.309540 -60.504806 -33.334474 5.400980 14.877923 -13.884410 -9.504371 43.028512 3.235942 -13.986796 17.784552 40.442985 23.431893 71.001371 41.234822 8.016426 -21.224740 13.061586 -24.515053 -47.618713 2.192236 -27.331528 
0.122315 0.833734 0.202042 -92.187801 2.637601 37.964864 37.508719 23.313807 -44.096430 -0.165437 5.631680 27.898100 -19.953344 -5.223102 39.543663 0.000000 -0.000000 0.000000 -34.250898 -23.329085 -51.976057 -1.383250 -2.606178 45.253821 19.486536 12.067353 38.605204 0.000000 -0.000000 0.000000 1.454880 -1.162558 35.429718 -2.739969 -3.844064 9.659006 1.127083 -0.739726 -4.954497 -13.504822 5.920002 29.286186 12.729245 9.157993 0.861563 -17.016879 -37.959776 15.218584 -67.131003 -32.710451 5.400634 13.810345 -11.034016 -9.771556 46.668406 3.496756 -12.849077 12.684510 40.937764 21.333477 78.637299 40.428603 10.512841 -18.520732 10.031068 -24.901823 -57.032644 2.355297 -22.869875 
0.096358 0.835118 0.212213 -91.014073 2.332595 49.762287 36.121110 24.122581 -47.360992 -0.420082 5.084893 17.424807 -16.654824 -6.341665 27.552912 0.000000 -0.000000 0.000000 -33.913939 -25.688915 -55.167405 -3.157943 -2.802299 33.807481 26.280303 8.631031 45.644219 0.000000 -0.000000 0.000000 1.634831 -1.559510 42.972435 -3.876869 -3.498782 6.373086 1.970344 -0.690770 -2.693914 -12.844341 4.161226 21.069587 13.536700 7.071148 -0.852128 -16.325846 -36.036543 14.421525 -69.190008 -32.524912 6.480067 11.697598 -11.308809 -5.067700 47.306059 1.382946 -16.295224 9.784163 40.070151 19.940203 80.538804 38.537462 13.445098 -16.298250 9.914180 -18.853417 -61.313748 5.411732 -27.351501 
0.070492 0.836779 0.225258 -91.357433 2.477997 62.281439 34.192835 28.232216 -53.468954 0.978627 6.935575 11.310279 -21.129109 -5.250106 34.126952 0.000000 -0.000000 0.000000 -32.334107 -26.368687 -59.948591 -4.923529 -2.539780 25.354199 19.085871 8.981854 31.234934 0.000000 -0.000000 0.000000 3.245167 -2.261003 49.586025 -4.791004 -2.801028 4.389231 2.278913 -1.505895 -2.728948 -12.928757 3.205166 11.300335 13.818482 5.399089 -4.006690 -18.573811 -35.581951 13.168963 -68.626079 -29.868516 8.684591 13.203406 -17.970789 0.566933 67.967455 -5.045419 -8.125203 11.916020 41.359459 21.271316 77.128637 37.394731 13.427435 -15.586869 13.215730 -14.190090 -85.190714 11.974307 -14.053152 
0.041690 0.836826 0.249945 -91.302083 1.809058 75.399586 32.418757 31.879906 -57.928023 -0.407836 8.743250 4.508752 -25.341464 -8.587744 37.461196 0.000000 -0.000000 0.000000 -30.673092 -29.613911 -64.371753 -5.484082 -5.567843 16.645815 25.594176 10.587277 44.294354 0.000000 -0.000000 0.000000 2.922572 -2.034037 51.238051 -5.025640 -3.132899 2.395073 3.155334 -1.581967 -2.677621 -14.958240 3.241993 12.129996 14.694577 6.437622 -9.800635 -10.372038 -32.515884 8.131546 -75.239863 -30.931855 12.362736 11.385648 -21.076877 1.795240 74.912499 -4.840792 -9.945498 3.223250 39.897157 16.321698 82.796508 37.137272 17.085399 -14.984998 17.352867 -14.289201 -87.263200 9.717399 -22.787475 
0.009765 0.834893 0.291699 -90.528067 2.034929 83.886481 33.741016 31.460494 -58.315799 -0.067060 12.398463 0.671775 -27.437031 -6.639987 37.802596 0.000000 -0.000000 0.000000 -32.358009 -29.747319 -63.454678 -4.934717 -4.220587 11.429397 29.662480 9.943927 46.901664 0.000000 -0.000000 0.000000 3.366662 -2.237051 53.543521 -4.452250 -3.787838 1.800522 3.724839 -1.414293 -2.570495 -16.573301 2.080996 12.807510 15.710135 5.993704 -11.768594 -14.675522 -34.883149 10.040529 -71.319632 -31.852248 11.645658 13.369250 -19.572641 -1.452394 80.269577 -6.578796 -8.479644 8.535000 40.653711 19.211646 76.566926 37.868007 14.028390 -15.531750 15.986755 -14.462011 -88.497559 10.880867 -23.143749 
-0.014886 0.834026 0.331047 -90.255278 2.385103 86.674321 33.264227 32.148791 -58.589024 -0.128066 12.808562 1.605412 -28.587590 -5.863151 38.263396 0.000000 -0.000000 0.000000 -32.960133 -29.591154 -62.409134 -5.123309 -5.430226 12.572352 32.788102 10.575284 48.063749 0.000000 -0.000000 0.000000 3.622146 -2.875959 58.529007 -4.418158 -3.989527 3.867124 4.113610 -1.410887 -4.513359 -17.150717 1.468420 10.135356 15.643226 6.382133 -14.560472 -17.329729 -37.256748 10.227901 -67.383286 -31.228255 10.646048 15.142670 -19.407589 -4.361139 78.443673 -7.592153 -7.715924 11.699245 42.153428 19.885468 71.634977 37.565536 10.924313 -16.702106 16.339716 -16.222372 -78.376782 12.303697 -23.712954 
